<?xml version="1.0" encoding="UTF-8" standalone="no"?>
<!DOCTYPE svg PUBLIC "-//W3C//DTD SVG 1.1//EN"
 "http://www.w3.org/Graphics/SVG/1.1/DTD/svg11.dtd">
<!-- Generated by graphviz version 2.40.1 (20161225.0304)
 -->
<!-- Title: state transitions Pages: 1 -->
<svg width="560pt" height="436pt"
 viewBox="0.00 0.00 560.00 436.00" xmlns="http://www.w3.org/2000/svg" xmlns:xlink="http://www.w3.org/1999/xlink">
<g id="graph0" class="graph" transform="scale(1 1) rotate(0) translate(4 432)">
<title>state transitions</title>
<polygon fill="#ffffff" stroke="transparent" points="-4,4 -4,-432 556,-432 556,4 -4,4"/>
<!-- initial -->
<g id="node1" class="node state initial">
<title>initial</title>
<ellipse fill="#000000" stroke="#000000" stroke-width="2" cx="232" cy="-422.5" rx="5.5" ry="5.5"/>
</g>
<!-- Start -->
<g id="node2" class="node state regular">
<title>Start</title>
<polygon fill="#ffffff" fill-opacity="0.003922" stroke="transparent" stroke-width="2" points="342,-389 122,-389 122,-323 342,-323 342,-389"/>
<text text-anchor="start" x="219.331" y="-372.2" font-family="Helvetica,sans-Serif" font-size="12.00" fill="#000000">Start</text>
<text text-anchor="start" x="128" y="-352.2" font-family="Helvetica,sans-Serif" font-size="12.00" fill="#000000">Shuffle cards stack</text>
<text text-anchor="start" x="127.6492" y="-332.2" font-family="Helvetica,sans-Serif" font-size="12.00" fill="#000000">Give client two cards &amp; server one card</text>
<polygon fill="#000000" stroke="#000000" points="122,-366 122,-366 342,-366 342,-366 122,-366"/>
<path fill="none" stroke="#000000" stroke-width="2" d="M135,-324C135,-324 329,-324 329,-324 335,-324 341,-330 341,-336 341,-336 341,-376 341,-376 341,-382 335,-388 329,-388 329,-388 135,-388 135,-388 129,-388 123,-382 123,-376 123,-376 123,-336 123,-336 123,-330 129,-324 135,-324"/>
</g>
<!-- initial&#45;&gt;Start -->
<g id="edge1" class="edge transition">
<title>initial&#45;&gt;Start</title>
<path fill="none" stroke="#000000" d="M232,-416.8302C232,-412.6096 232,-406.4144 232,-399.5717"/>
<polygon fill="#000000" stroke="#000000" points="235.5001,-399.2378 232,-389.2378 228.5001,-399.2379 235.5001,-399.2378"/>
<text text-anchor="middle" x="233.3895" y="-400" font-family="Helvetica,sans-Serif" font-size="10.00" fill="#000000"> </text>
</g>
<!-- Ask -->
<g id="node3" class="node state regular">
<title>Ask</title>
<polygon fill="#ffffff" fill-opacity="0.003922" stroke="transparent" stroke-width="2" points="260,-295 204,-295 204,-259 260,-259 260,-295"/>
<text text-anchor="start" x="221.9986" y="-273.2" font-family="Helvetica,sans-Serif" font-size="12.00" fill="#000000">Ask</text>
<path fill="none" stroke="#000000" stroke-width="2" d="M216.3333,-260C216.3333,-260 247.6667,-260 247.6667,-260 253.3333,-260 259,-265.6667 259,-271.3333 259,-271.3333 259,-282.6667 259,-282.6667 259,-288.3333 253.3333,-294 247.6667,-294 247.6667,-294 216.3333,-294 216.3333,-294 210.6667,-294 205,-288.3333 205,-282.6667 205,-282.6667 205,-271.3333 205,-271.3333 205,-265.6667 210.6667,-260 216.3333,-260"/>
</g>
<!-- Start&#45;&gt;Ask -->
<g id="edge2" class="edge transition">
<title>Start&#45;&gt;Ask</title>
<path fill="none" stroke="#000000" d="M232,-322.9546C232,-317.1832 232,-311.2229 232,-305.5845"/>
<polygon fill="#000000" stroke="#000000" points="235.5001,-305.273 232,-295.2731 228.5001,-305.2731 235.5001,-305.273"/>
<text text-anchor="middle" x="233.3895" y="-306" font-family="Helvetica,sans-Serif" font-size="10.00" fill="#000000"> </text>
</g>
<!-- Add -->
<g id="node4" class="node state regular">
<title>Add</title>
<polygon fill="#ffffff" fill-opacity="0.003922" stroke="transparent" stroke-width="2" points="138,-231 82,-231 82,-195 138,-195 138,-231"/>
<text text-anchor="start" x="99.3278" y="-209.2" font-family="Helvetica,sans-Serif" font-size="12.00" fill="#000000">Add</text>
<path fill="none" stroke="#000000" stroke-width="2" d="M94.3333,-196C94.3333,-196 125.6667,-196 125.6667,-196 131.3333,-196 137,-201.6667 137,-207.3333 137,-207.3333 137,-218.6667 137,-218.6667 137,-224.3333 131.3333,-230 125.6667,-230 125.6667,-230 94.3333,-230 94.3333,-230 88.6667,-230 83,-224.3333 83,-218.6667 83,-218.6667 83,-207.3333 83,-207.3333 83,-201.6667 88.6667,-196 94.3333,-196"/>
</g>
<!-- Ask&#45;&gt;Add -->
<g id="edge3" class="edge transition">
<title>Ask&#45;&gt;Add</title>
<path fill="none" stroke="#000000" d="M203.809,-273.7963C174.6473,-269.9172 131.748,-262.4453 119.971,-251 117.1646,-248.2727 115.1154,-244.8591 113.6248,-241.2039"/>
<polygon fill="#000000" stroke="#000000" points="116.9107,-239.9579 110.8477,-231.2693 110.1692,-241.8424 116.9107,-239.9579"/>
<text text-anchor="start" x="120" y="-242" font-family="Helvetica,sans-Serif" font-size="10.00" fill="#000000">Client add one card &#160;&#160;</text>
</g>
<!-- NotAdd -->
<g id="node5" class="node state regular">
<title>NotAdd</title>
<polygon fill="#ffffff" fill-opacity="0.003922" stroke="transparent" stroke-width="2" points="243,-231 181,-231 181,-195 243,-195 243,-231"/>
<text text-anchor="start" x="191.9936" y="-209.2" font-family="Helvetica,sans-Serif" font-size="12.00" fill="#000000">NotAdd</text>
<path fill="none" stroke="#000000" stroke-width="2" d="M193.3333,-196C193.3333,-196 230.6667,-196 230.6667,-196 236.3333,-196 242,-201.6667 242,-207.3333 242,-207.3333 242,-218.6667 242,-218.6667 242,-224.3333 236.3333,-230 230.6667,-230 230.6667,-230 193.3333,-230 193.3333,-230 187.6667,-230 182,-224.3333 182,-218.6667 182,-218.6667 182,-207.3333 182,-207.3333 182,-201.6667 187.6667,-196 193.3333,-196"/>
</g>
<!-- Ask&#45;&gt;NotAdd -->
<g id="edge4" class="edge transition">
<title>Ask&#45;&gt;NotAdd</title>
<path fill="none" stroke="#000000" d="M226.3223,-258.8314C224.6059,-253.3389 222.6791,-247.1732 220.8087,-241.1879"/>
<polygon fill="#000000" stroke="#000000" points="224.0848,-239.9371 217.7613,-231.4363 217.4035,-242.0251 224.0848,-239.9371"/>
<text text-anchor="start" x="223" y="-242" font-family="Helvetica,sans-Serif" font-size="10.00" fill="#000000">Client pass &#160;&#160;</text>
</g>
<!-- ServerRound -->
<g id="node6" class="node state regular">
<title>ServerRound</title>
<polygon fill="#ffffff" fill-opacity="0.003922" stroke="transparent" stroke-width="2" points="220,-167 0,-167 0,-121 220,-121 220,-167"/>
<text text-anchor="start" x="74.66" y="-150.2" font-family="Helvetica,sans-Serif" font-size="12.00" fill="#000000">ServerRound</text>
<text text-anchor="start" x="5.6432" y="-130.2" font-family="Helvetica,sans-Serif" font-size="12.00" fill="#000000">server determine pass or take one card</text>
<polygon fill="#000000" stroke="#000000" points="0,-144 0,-144 220,-144 220,-144 0,-144"/>
<path fill="none" stroke="#000000" stroke-width="2" d="M13,-122C13,-122 207,-122 207,-122 213,-122 219,-128 219,-134 219,-134 219,-154 219,-154 219,-160 213,-166 207,-166 207,-166 13,-166 13,-166 7,-166 1,-160 1,-154 1,-154 1,-134 1,-134 1,-128 7,-122 13,-122"/>
</g>
<!-- Add&#45;&gt;ServerRound -->
<g id="edge5" class="edge transition">
<title>Add&#45;&gt;ServerRound</title>
<path fill="none" stroke="#000000" d="M110,-194.8711C110,-189.4482 110,-183.3229 110,-177.2494"/>
<polygon fill="#000000" stroke="#000000" points="113.5001,-177.21 110,-167.21 106.5001,-177.21 113.5001,-177.21"/>
<text text-anchor="middle" x="111.3895" y="-178" font-family="Helvetica,sans-Serif" font-size="10.00" fill="#000000"> </text>
</g>
<!-- NotAdd&#45;&gt;ServerRound -->
<g id="edge6" class="edge transition">
<title>NotAdd&#45;&gt;ServerRound</title>
<path fill="none" stroke="#000000" d="M185.2007,-194.8711C175.2292,-188.1256 163.6508,-180.2932 152.6115,-172.8255"/>
<polygon fill="#000000" stroke="#000000" points="154.5544,-169.9141 144.3104,-167.21 150.6322,-175.7121 154.5544,-169.9141"/>
<text text-anchor="middle" x="174.3895" y="-178" font-family="Helvetica,sans-Serif" font-size="10.00" fill="#000000"> </text>
</g>
<!-- Check -->
<g id="node7" class="node state regular">
<title>Check</title>
<polygon fill="#ffffff" fill-opacity="0.003922" stroke="transparent" stroke-width="2" points="552,-93 194,-93 194,-47 552,-47 552,-93"/>
<text text-anchor="start" x="355.9978" y="-76.2" font-family="Helvetica,sans-Serif" font-size="12.00" fill="#000000">Check</text>
<text text-anchor="start" x="199.957" y="-56.2" font-family="Helvetica,sans-Serif" font-size="12.00" fill="#000000">check for reaching game Final ( if one exceeds 21 or reaches 21)</text>
<polygon fill="#000000" stroke="#000000" points="194,-70 194,-70 552,-70 552,-70 194,-70"/>
<path fill="none" stroke="#000000" stroke-width="2" d="M207,-48C207,-48 539,-48 539,-48 545,-48 551,-54 551,-60 551,-60 551,-80 551,-80 551,-86 545,-92 539,-92 539,-92 207,-92 207,-92 201,-92 195,-86 195,-80 195,-80 195,-60 195,-60 195,-54 201,-48 207,-48"/>
</g>
<!-- ServerRound&#45;&gt;Check -->
<g id="edge7" class="edge transition">
<title>ServerRound&#45;&gt;Check</title>
<path fill="none" stroke="#000000" d="M154.8438,-120.9117C170.3029,-113.6884 187.9343,-106.2447 204.635,-101 210.6828,-99.1008 216.8915,-97.3028 223.1924,-95.6024"/>
<polygon fill="#000000" stroke="#000000" points="224.3625,-98.9146 233.1596,-93.0102 222.6006,-92.14 224.3625,-98.9146"/>
<text text-anchor="start" x="204" y="-104" font-family="Helvetica,sans-Serif" font-size="10.00" fill="#000000">if Server wanna continue &#160;&#160;</text>
</g>
<!-- final -->
<g id="node8" class="node state final">
<title>final</title>
<ellipse fill="#000000" stroke="#000000" stroke-width="2" cx="129" cy="-9.5" rx="5.5" ry="5.5"/>
<ellipse fill="none" stroke="#000000" stroke-width="2" cx="129" cy="-9.5" rx="9.5" ry="9.5"/>
</g>
<!-- ServerRound&#45;&gt;final -->
<g id="edge8" class="edge transition">
<title>ServerRound&#45;&gt;final</title>
<path fill="none" stroke="#000000" d="M112.1434,-120.7963C114.0979,-101.0971 117.2923,-72.1107 121.321,-47 122.2576,-41.1622 123.4707,-34.8529 124.6549,-29.1048"/>
<polygon fill="#000000" stroke="#000000" points="128.144,-29.526 126.8164,-19.0147 121.2993,-28.0597 128.144,-29.526"/>
<text text-anchor="start" x="122" y="-67" font-family="Helvetica,sans-Serif" font-size="10.00" fill="#000000">Server pass &#160;&#160;</text>
</g>
<!-- Check&#45;&gt;Ask -->
<g id="edge9" class="edge transition">
<title>Check&#45;&gt;Ask</title>
<path fill="none" stroke="#000000" d="M367.2414,-93.2121C356.8601,-130.7676 331.7168,-205.2528 286,-251 281.1572,-255.8461 275.2332,-259.9193 269.1047,-263.2966"/>
<polygon fill="#000000" stroke="#000000" points="267.4958,-260.1876 260.0814,-267.7558 270.5971,-266.4631 267.4958,-260.1876"/>
<text text-anchor="start" x="336" y="-178" font-family="Helvetica,sans-Serif" font-size="10.00" fill="#000000">false &#160;&#160;</text>
</g>
<!-- Check&#45;&gt;final -->
<g id="edge10" class="edge transition">
<title>Check&#45;&gt;final</title>
<path fill="none" stroke="#000000" d="M280.058,-46.955C231.5493,-34.9272 176.5329,-21.2858 148.172,-14.2537"/>
<polygon fill="#000000" stroke="#000000" points="148.9129,-10.8315 138.3644,-11.8219 147.2282,-17.6258 148.9129,-10.8315"/>
<text text-anchor="start" x="243" y="-30" font-family="Helvetica,sans-Serif" font-size="10.00" fill="#000000">true &#160;&#160;</text>
</g>
</g>
</svg>
